<svg width="25" height="25" viewBox="0 0 25 25" fill="none" xmlns="http://www.w3.org/2000/svg">
<g clip-path="url(#clip0)">
<path d="M11.0858 6.5L12.5 7.91422C12.6853 8.10051 12.9057 8.24821 13.1484 8.34876C13.3912 8.44931 13.6515 8.50071 13.9142 8.5H18.5C19.0302 8.5006 19.5386 8.71151 19.9135 9.08645C20.2885 9.46139 20.4994 9.96975 20.5 10.5V16.5C20.4994 17.0302 20.2885 17.5386 19.9135 17.9135C19.5386 18.2885 19.0302 18.4994 18.5 18.5H6.5C5.96975 18.4994 5.46139 18.2885 5.08645 17.9135C4.71151 17.5386 4.5006 17.0302 4.5 16.5V8.5C4.5006 7.96975 4.71151 7.46139 5.08645 7.08645C5.46139 6.71151 5.96975 6.5006 6.5 6.5H11.0858ZM11.0858 5.5H6.5C5.70435 5.5 4.94129 5.81607 4.37868 6.37868C3.81607 6.94129 3.5 7.70435 3.5 8.5V16.5C3.5 17.2956 3.81607 18.0587 4.37868 18.6213C4.94129 19.1839 5.70435 19.5 6.5 19.5H18.5C19.2956 19.5 20.0587 19.1839 20.6213 18.6213C21.1839 18.0587 21.5 17.2956 21.5 16.5V10.5C21.5 9.70435 21.1839 8.94129 20.6213 8.37868C20.0587 7.81607 19.2956 7.5 18.5 7.5H13.9142C13.7829 7.5 13.6529 7.47414 13.5315 7.42388C13.4102 7.37363 13.3 7.29997 13.2071 7.20711L11.7929 5.79289C11.7 5.70003 11.5898 5.62637 11.4685 5.57612C11.3471 5.52586 11.2171 5.5 11.0858 5.5Z" fill="#ffffff"/>
</g>
<defs>
<clipPath id="clip0">
<rect width="24" height="24" fill="white" transform="translate(0.5 0.5)"/>
</clipPath>
</defs>
</svg>
