<svg width="25" height="25" viewBox="0 0 25 25" fill="none" xmlns="http://www.w3.org/2000/svg">
<path d="M15.4916 15.9999H15.5V17.5C15.5 18.2956 15.1839 19.0587 14.6213 19.6213C14.0587 20.1839 13.2956 20.5 12.5 20.5H7.5C6.70435 20.5 5.94129 20.1839 5.37868 19.6213C4.81607 19.0587 4.5 18.2956 4.5 17.5V7.5C4.5 6.70435 4.81607 5.94129 5.37868 5.37868C5.94129 4.81607 6.70435 4.5 7.5 4.5H12.5C13.2956 4.5 14.0587 4.81607 14.6213 5.37868C15.1839 5.94129 15.5 6.70435 15.5 7.5V9V9.00006C15.5 9.13267 15.4473 9.25985 15.3536 9.35361C15.2598 9.44738 15.1326 9.50006 15 9.50006C14.8674 9.50006 14.7402 9.44738 14.6464 9.35361C14.5527 9.25985 14.5 9.13267 14.5 9.00006V9V7.5C14.4994 6.96975 14.2885 6.4614 13.9135 6.08646C13.5386 5.71152 13.0302 5.50061 12.5 5.5H7.5C6.96975 5.50061 6.4614 5.71152 6.08646 6.08646C5.71152 6.4614 5.50061 6.96975 5.5 7.5V17.5C5.50061 18.0302 5.71152 18.5386 6.08646 18.9135C6.4614 19.2885 6.96975 19.4994 7.5 19.5H12.5C13.0302 19.4994 13.5386 19.2885 13.9135 18.9135C14.2885 18.5386 14.4994 18.0302 14.5 17.5V15.9999H14.5084C14.517 15.8755 14.5726 15.7589 14.6638 15.6738C14.7551 15.5887 14.8752 15.5413 15 15.5413C15.1248 15.5413 15.2449 15.5887 15.3362 15.6738C15.4274 15.7589 15.483 15.8755 15.4916 15.9999ZM9.49964 12.4999C9.4996 12.5656 9.51251 12.6306 9.53763 12.6913C9.56274 12.752 9.59957 12.8071 9.646 12.8536C9.69244 12.9 9.74758 12.9368 9.80826 12.962C9.86893 12.9871 9.93397 13 9.99964 12.9999H20.7926L17.9692 15.8234C17.877 15.9175 17.8257 16.0442 17.8263 16.1759C17.827 16.3076 17.8796 16.4337 17.9728 16.5269C18.0659 16.62 18.192 16.6726 18.3238 16.6733C18.4555 16.674 18.5821 16.6226 18.6762 16.5304L22.3532 12.8534C22.3996 12.807 22.4364 12.7519 22.4616 12.6912C22.4867 12.6306 22.4996 12.5656 22.4996 12.4999C22.4996 12.4343 22.4867 12.3693 22.4616 12.3086C22.4364 12.248 22.3996 12.1928 22.3532 12.1464L18.6762 8.46948C18.5821 8.37728 18.4555 8.32594 18.3238 8.32661C18.192 8.32727 18.0659 8.37989 17.9728 8.47303C17.8796 8.56617 17.827 8.69231 17.8263 8.82403C17.8257 8.95574 17.877 9.0824 17.9692 9.17648L20.7926 11.9999H9.99963C9.93396 11.9999 9.86892 12.0128 9.80824 12.0379C9.74756 12.063 9.69242 12.0998 9.64598 12.1463C9.59955 12.1927 9.56272 12.2479 9.53761 12.3085C9.51249 12.3692 9.49959 12.4343 9.49963 12.4999H9.49964Z" fill="white"/>
</svg>
