<svg width="126" height="52" viewBox="0 0 126 52" fill="none" xmlns="http://www.w3.org/2000/svg">
<g filter="url(#filter0_d)">
<path d="M27.992 18.112H2.712V23.68H19.48L1.688 43.2V48H27.992V42.432H9.88L27.992 22.912V18.112ZM44.053 18.112V6.848H38.229V18.112H32.853V23.04H38.229V48H44.053V23.04H50.389V18.112H44.053ZM70.1835 48.64C78.6955 48.64 85.8635 42.432 85.8635 32.96C85.8635 23.488 78.6955 17.472 70.1835 17.472C61.6715 17.472 54.5675 23.488 54.5675 32.96C54.5675 42.432 61.6715 48.64 70.1835 48.64ZM70.1835 43.008C64.8075 43.008 60.3275 39.04 60.3275 32.96C60.3275 26.944 64.8075 23.168 70.1835 23.168C75.5595 23.168 80.0395 26.944 80.0395 32.96C80.0395 39.04 75.5595 43.008 70.1835 43.008ZM99.374 33.408L113.006 48H120.686L104.814 31.04L117.614 18.112H109.678L99.374 28.544V1.856H93.614V48H99.374V33.408Z" fill="white"/>
<path d="M27.992 18.112H28.992V17.112H27.992V18.112ZM2.712 18.112V17.112H1.712V18.112H2.712ZM2.712 23.68H1.712V24.68H2.712V23.68ZM19.48 23.68L20.2191 24.3536L21.7445 22.68H19.48V23.68ZM1.688 43.2L0.948938 42.5264L0.688 42.8126V43.2H1.688ZM1.688 48H0.688V49H1.688V48ZM27.992 48V49H28.992V48H27.992ZM27.992 42.432H28.992V41.432H27.992V42.432ZM9.88 42.432L9.14695 41.7518L7.58797 43.432H9.88V42.432ZM27.992 22.912L28.725 23.5922L28.992 23.3045V22.912H27.992ZM27.992 17.112H2.712V19.112H27.992V17.112ZM1.712 18.112V23.68H3.712V18.112H1.712ZM2.712 24.68H19.48V22.68H2.712V24.68ZM18.7409 23.0064L0.948938 42.5264L2.42706 43.8736L20.2191 24.3536L18.7409 23.0064ZM0.688 43.2V48H2.688V43.2H0.688ZM1.688 49H27.992V47H1.688V49ZM28.992 48V42.432H26.992V48H28.992ZM27.992 41.432H9.88V43.432H27.992V41.432ZM10.6131 43.1122L28.725 23.5922L27.259 22.2318L9.14695 41.7518L10.6131 43.1122ZM28.992 22.912V18.112H26.992V22.912H28.992ZM44.053 18.112H43.053V19.112H44.053V18.112ZM44.053 6.848H45.053V5.848H44.053V6.848ZM38.229 6.848V5.848H37.229V6.848H38.229ZM38.229 18.112V19.112H39.229V18.112H38.229ZM32.853 18.112V17.112H31.853V18.112H32.853ZM32.853 23.04H31.853V24.04H32.853V23.04ZM38.229 23.04H39.229V22.04H38.229V23.04ZM38.229 48H37.229V49H38.229V48ZM44.053 48V49H45.053V48H44.053ZM44.053 23.04V22.04H43.053V23.04H44.053ZM50.389 23.04V24.04H51.389V23.04H50.389ZM50.389 18.112H51.389V17.112H50.389V18.112ZM45.053 18.112V6.848H43.053V18.112H45.053ZM44.053 5.848H38.229V7.848H44.053V5.848ZM37.229 6.848V18.112H39.229V6.848H37.229ZM38.229 17.112H32.853V19.112H38.229V17.112ZM31.853 18.112V23.04H33.853V18.112H31.853ZM32.853 24.04H38.229V22.04H32.853V24.04ZM37.229 23.04V48H39.229V23.04H37.229ZM38.229 49H44.053V47H38.229V49ZM45.053 48V23.04H43.053V48H45.053ZM44.053 24.04H50.389V22.04H44.053V24.04ZM51.389 23.04V18.112H49.389V23.04H51.389ZM50.389 17.112H44.053V19.112H50.389V17.112ZM70.1835 49.64C79.2069 49.64 86.8635 43.0243 86.8635 32.96H84.8635C84.8635 41.8397 78.1841 47.64 70.1835 47.64V49.64ZM86.8635 32.96C86.8635 22.8795 79.1898 16.472 70.1835 16.472V18.472C78.2012 18.472 84.8635 24.0965 84.8635 32.96H86.8635ZM70.1835 16.472C61.1718 16.472 53.5675 22.8846 53.5675 32.96H55.5675C55.5675 24.0914 62.1712 18.472 70.1835 18.472V16.472ZM53.5675 32.96C53.5675 43.0191 61.1547 49.64 70.1835 49.64V47.64C62.1883 47.64 55.5675 41.8449 55.5675 32.96H53.5675ZM70.1835 42.008C65.3384 42.008 61.3275 38.4666 61.3275 32.96H59.3275C59.3275 39.6134 64.2766 44.008 70.1835 44.008V42.008ZM61.3275 32.96C61.3275 27.5474 65.3072 24.168 70.1835 24.168V22.168C64.3078 22.168 59.3275 26.3405 59.3275 32.96H61.3275ZM70.1835 24.168C75.0598 24.168 79.0395 27.5474 79.0395 32.96H81.0395C81.0395 26.3405 76.0592 22.168 70.1835 22.168V24.168ZM79.0395 32.96C79.0395 38.4666 75.0286 42.008 70.1835 42.008V44.008C76.0904 44.008 81.0395 39.6134 81.0395 32.96H79.0395ZM99.374 33.408L100.105 32.7253L98.374 30.8727V33.408H99.374ZM113.006 48L112.275 48.6827L112.572 49H113.006V48ZM120.686 48V49H122.991L121.416 47.3167L120.686 48ZM104.814 31.04L104.103 30.3364L103.426 31.0205L104.084 31.7233L104.814 31.04ZM117.614 18.112L118.325 18.8156L120.011 17.112H117.614V18.112ZM109.678 18.112V17.112H109.26L108.967 17.4093L109.678 18.112ZM99.374 28.544H98.374V30.9794L100.085 29.2467L99.374 28.544ZM99.374 1.856H100.374V0.855999H99.374V1.856ZM93.614 1.856V0.855999H92.614V1.856H93.614ZM93.614 48H92.614V49H93.614V48ZM99.374 48V49H100.374V48H99.374ZM98.6433 34.0907L112.275 48.6827L113.737 47.3173L100.105 32.7253L98.6433 34.0907ZM113.006 49H120.686V47H113.006V49ZM121.416 47.3167L105.544 30.3567L104.084 31.7233L119.956 48.6833L121.416 47.3167ZM105.525 31.7436L118.325 18.8156L116.903 17.4084L104.103 30.3364L105.525 31.7436ZM117.614 17.112H109.678V19.112H117.614V17.112ZM108.967 17.4093L98.6625 27.8413L100.085 29.2467L110.389 18.8147L108.967 17.4093ZM100.374 28.544V1.856H98.374V28.544H100.374ZM99.374 0.855999H93.614V2.856H99.374V0.855999ZM92.614 1.856V48H94.614V1.856H92.614ZM93.614 49H99.374V47H93.614V49ZM100.374 48V33.408H98.374V48H100.374Z" fill="black"/>
</g>
<defs>
<filter id="filter0_d" x="0.687988" y="0.855957" width="125.303" height="50.784" filterUnits="userSpaceOnUse" color-interpolation-filters="sRGB">
<feFlood flood-opacity="0" result="BackgroundImageFix"/>
<feColorMatrix in="SourceAlpha" type="matrix" values="0 0 0 0 0 0 0 0 0 0 0 0 0 0 0 0 0 0 127 0"/>
<feOffset dx="3" dy="2"/>
<feColorMatrix type="matrix" values="0 0 0 0 0.0247917 0 0 0 0 0.285104 0 0 0 0 0.495833 0 0 0 1 0"/>
<feBlend mode="normal" in2="BackgroundImageFix" result="effect1_dropShadow"/>
<feBlend mode="normal" in="SourceGraphic" in2="effect1_dropShadow" result="shape"/>
</filter>
</defs>
</svg>
